<?xml version="1.0" encoding="UTF-8"?>
<svg width="347px" height="269px" viewBox="0 0 347 269" version="1.1" xmlns="http://www.w3.org/2000/svg" xmlns:xlink="http://www.w3.org/1999/xlink">
    <title>Artboard Copy</title>
    <g id="Artboard-Copy" stroke="none" stroke-width="1" fill="none" fill-rule="evenodd" stroke-dasharray="0,14" stroke-linecap="round">
        <path d="M3,3.5 L347,3.5 M3,15.5 L347,15.5 M3,26.5 L347,26.5 M3,38.5 L347,38.5 M3,50.5 L347,50.5 M3,62.5 L347,62.5 M3,73.5 L347,73.5 M3,85.5 L347,85.5 M3,97.5 L347,97.5 M3,109.5 L347,109.5 M3,120.5 L347,120.5 M3,132.5 L347,132.5 M3,144.5 L347,144.5 M3,156.5 L347,156.5 M3,168.5 L347,168.5 M3,179.5 L347,179.5 M3,191.5 L347,191.5 M3,203.5 L347,203.5 M3,215.5 L347,215.5 M3,226.5 L347,226.5 M3,238.5 L347,238.5 M3,250.5 L347,250.5 M3,262.5 L347,262.5" id="Combined-Shape" stroke="#A1C4FF" stroke-width="5"></path>
    </g>
</svg>