<?xml version="1.0" encoding="UTF-8"?>
<svg width="85px" height="86px" viewBox="0 0 85 86" version="1.1" xmlns="http://www.w3.org/2000/svg" xmlns:xlink="http://www.w3.org/1999/xlink">
    <g id="Symbols" stroke="none" stroke-width="1" fill="none" fill-rule="evenodd">
        <g id="footer/desktop" transform="translate(-612.000000, -463.000000)" fill="#000000" fill-rule="nonzero">
            <g id="Group-12" transform="translate(612.000000, 463.000000)">
                <path d="M51.4274019,43.6795898 L52.6711592,35.4174687 L44.890357,35.4174687 L44.890357,30.0558633 C44.890357,27.7954844 45.9772336,25.5922461 49.4622937,25.5922461 L53,25.5922461 L53,18.5582891 C53,18.5582891 49.7893708,18 46.7200135,18 C40.3116301,18 36.1232969,21.9568984 36.1232969,29.1204102 L36.1232969,35.4174687 L29,35.4174687 L29,43.6795898 L36.1232969,43.6795898 L36.1232969,63.6527539 C37.5516248,63.8811367 39.0155793,64 40.5068711,64 C41.9981628,64 43.4621173,63.8811367 44.890357,63.6527539 L44.890357,43.6795898 L51.4274019,43.6795898 Z" id="Path"></path>
            </g>
        </g>
    </g>
</svg>