<?xml version="1.0" encoding="UTF-8"?>
<svg width="280px" height="34px" viewBox="0 0 280 34" version="1.1" xmlns="http://www.w3.org/2000/svg" xmlns:xlink="http://www.w3.org/1999/xlink">
    <title>Group 3</title>
    <g id="Final" stroke="none" stroke-width="1" fill="none" fill-rule="evenodd" stroke-linecap="round">
        <g id="Home" transform="translate(-580.000000, -771.000000)" stroke-width="2">
            <g id="Group-8" transform="translate(0.000000, 608.000000)">
                <g id="Group-2" transform="translate(376.000000, 93.296393)">
                    <g id="Group-3" transform="translate(205.000000, 70.703607)">
                        <path d="M0,9.30643949 C17.593875,9.30643949 18.6050592,20.6474568 39.4845657,20.6474568 C60.3640722,20.6474568 66.1996815,0 87.3001103,0 C108.400539,0 116.540734,20.6474568 133.777373,20.6474568 C151.014012,20.6474568 152.854574,9.30643949 169.701074,9.30643949 C186.547573,9.30643949 185.278667,28 201.523506,28 C217.768345,28 226.031629,0 240.095448,0 C254.159266,0 256.045524,20.6474568 278,20.6474568" id="Path-4" stroke="#A1C4FF"></path>
                        <path d="M0,13.3064395 C17.593875,13.3064395 18.6050592,24.6474568 39.4845657,24.6474568 C60.3640722,24.6474568 66.1996815,4 87.3001103,4 C108.400539,4 116.540734,24.6474568 133.777373,24.6474568 C151.014012,24.6474568 152.854574,13.3064395 169.701074,13.3064395 C186.547573,13.3064395 185.278667,32 201.523506,32 C217.768345,32 226.031629,4 240.095448,4 C254.159266,4 256.045524,24.6474568 278,24.6474568" id="Path-4" stroke="#FFDF59" transform="translate(139.000000, 18.000000) scale(-1, -1) translate(-139.000000, -18.000000) "></path>
                    </g>
                </g>
            </g>
        </g>
    </g>
</svg>