<?xml version="1.0" encoding="UTF-8"?>
<svg width="508px" height="402px" viewBox="0 0 508 402" version="1.1" xmlns="http://www.w3.org/2000/svg" xmlns:xlink="http://www.w3.org/1999/xlink">
    <title>hero-blob-blue</title>
    <g id="hero-blob-blue" stroke="none" stroke-width="1" fill="none" fill-rule="evenodd">
        <g id="Group-12">
            <path d="M38,42.2079438 C111.900118,0.566802139 173.058213,-10.2628763 221.474285,9.71890857 C294.098393,39.6915859 279.779592,195.494351 378.917202,185.000416 C478.054812,174.506481 534.91178,210.853816 525.083215,279.445831 C515.254651,348.037846 558,402 558,402 C558,402 384.666667,402 38,402 L38,42.2079438 Z" id="Path-2" fill="#A1C4FF" opacity="0.334856" transform="translate(298.000000, 201.000000) scale(-1, -1) translate(-298.000000, -201.000000) "></path>
            <path d="M0,0 C54.8457332,24.6453103 87.9243982,63.9135245 99.2359951,117.804643 C116.20339,198.64132 158.344458,202.514325 239.910558,208.59217 C321.476657,214.670014 283.604285,358.928264 354.033294,390.985653 C400.985967,412.357245 468.974869,390.985653 558,326.870875" id="Path-4" stroke="#A1C4FF" stroke-width="2"></path>
        </g>
    </g>
</svg>