<?xml version="1.0" encoding="UTF-8"?>
<svg width="1118px" height="515px" viewBox="0 0 1118 515" version="1.1" xmlns="http://www.w3.org/2000/svg" xmlns:xlink="http://www.w3.org/1999/xlink">
    <title>hero-blob-yellow</title>
    <g id="hero-blob-yellow" stroke="none" stroke-width="1" fill="none" fill-rule="evenodd">
        <g id="Group-11" transform="translate(0.000000, 1.250000)">
            <path d="M1,128.25 C44.609375,156.25 83.78125,160.916667 118.515625,142.25 C170.617188,114.25 207.65625,11.0234375 309.335938,11.0234375 C411.015625,11.0234375 383.898438,170.25 440.117188,184.25 C496.335938,198.25 538.515625,170.25 598.515625,184.25 C658.515625,198.25 605.515625,347.75 706.515625,380.25 C807.515625,412.75 1021.9375,311.398438 1093.01562,512.953125 C1093.01562,512.953125 728.677083,512.953125 0,512.953125 L1,128.25 Z" id="Path-3" fill="#FFF6C0" opacity="0.6"></path>
            <path d="M1,98.5078125 C19.4817708,146.002604 52.5846354,169.75 100.308594,169.75 C171.894531,169.75 235.53125,-5.68434189e-14 309.023438,-5.68434189e-14 C382.515625,-5.68434189e-14 365.515625,230.761719 456.261719,210.75 C547.007812,190.738281 634.515625,171.953125 646.515625,234.601562 C658.515625,297.25 651.839844,404.75 724.515625,404.75 C797.191406,404.75 952.503906,353.921875 1012.26172,388.585937 C1052.10026,411.695312 1087.05469,453.083333 1117.125,512.75" id="Path-5" stroke="#FFDF59" stroke-width="2"></path>
        </g>
    </g>
</svg>