<?xml version="1.0" encoding="UTF-8"?>
<svg width="479px" height="372px" viewBox="0 0 479 372" version="1.1" xmlns="http://www.w3.org/2000/svg" xmlns:xlink="http://www.w3.org/1999/xlink">
    <title>Artboard</title>
    <g id="Artboard" stroke="none" stroke-width="1" fill="none" fill-rule="evenodd" stroke-dasharray="0,14" stroke-linecap="round">
        <line x1="3" y1="2.5" x2="479" y2="2.5" id="Path" stroke="#FFDF59" stroke-width="5"></line>
        <line x1="3" y1="16.5" x2="479" y2="16.5" id="Path-Copy" stroke="#FFDF59" stroke-width="5"></line>
        <line x1="3" y1="30.5" x2="479" y2="30.5" id="Path-Copy-2" stroke="#FFDF59" stroke-width="5"></line>
        <line x1="3" y1="44.5" x2="479" y2="44.5" id="Path-Copy-3" stroke="#FFDF59" stroke-width="5"></line>
        <line x1="3" y1="58.5" x2="479" y2="58.5" id="Path-Copy-4" stroke="#FFDF59" stroke-width="5"></line>
        <line x1="3" y1="72.5" x2="479" y2="72.5" id="Path-Copy-5" stroke="#FFDF59" stroke-width="5"></line>
        <line x1="3" y1="86.5" x2="479" y2="86.5" id="Path-Copy-6" stroke="#FFDF59" stroke-width="5"></line>
        <line x1="3" y1="100.5" x2="479" y2="100.5" id="Path-Copy-7" stroke="#FFDF59" stroke-width="5"></line>
        <line x1="3" y1="114.5" x2="479" y2="114.5" id="Path-Copy-8" stroke="#FFDF59" stroke-width="5"></line>
        <line x1="3" y1="128.5" x2="479" y2="128.5" id="Path-Copy-9" stroke="#FFDF59" stroke-width="5"></line>
        <line x1="3" y1="142.5" x2="479" y2="142.5" id="Path-Copy-10" stroke="#FFDF59" stroke-width="5"></line>
        <line x1="3" y1="156.5" x2="479" y2="156.5" id="Path-Copy-11" stroke="#FFDF59" stroke-width="5"></line>
        <line x1="3" y1="170.5" x2="479" y2="170.5" id="Path-Copy-12" stroke="#FFDF59" stroke-width="5"></line>
        <line x1="3" y1="184.5" x2="479" y2="184.5" id="Path-Copy-13" stroke="#FFDF59" stroke-width="5"></line>
        <line x1="3" y1="198.5" x2="479" y2="198.5" id="Path-Copy-14" stroke="#FFDF59" stroke-width="5"></line>
        <line x1="3" y1="212.5" x2="479" y2="212.5" id="Path-Copy-15" stroke="#FFDF59" stroke-width="5"></line>
        <line x1="3" y1="226.5" x2="479" y2="226.5" id="Path-Copy-16" stroke="#FFDF59" stroke-width="5"></line>
        <line x1="3" y1="240.5" x2="479" y2="240.5" id="Path-Copy-17" stroke="#FFDF59" stroke-width="5"></line>
        <line x1="3" y1="254.5" x2="479" y2="254.5" id="Path-Copy-18" stroke="#FFDF59" stroke-width="5"></line>
        <line x1="3" y1="268.5" x2="479" y2="268.5" id="Path-Copy-19" stroke="#FFDF59" stroke-width="5"></line>
        <line x1="3" y1="282.5" x2="479" y2="282.5" id="Path-Copy-20" stroke="#FFDF59" stroke-width="5"></line>
        <line x1="3" y1="296.5" x2="479" y2="296.5" id="Path-Copy-21" stroke="#FFDF59" stroke-width="5"></line>
        <line x1="3" y1="310.5" x2="479" y2="310.5" id="Path-Copy-22" stroke="#FFDF59" stroke-width="5"></line>
        <line x1="3" y1="324.5" x2="479" y2="324.5" id="Path-Copy-23" stroke="#FFDF59" stroke-width="5"></line>
        <line x1="3" y1="338.5" x2="479" y2="338.5" id="Path-Copy-24" stroke="#FFDF59" stroke-width="5"></line>
        <line x1="3" y1="352.5" x2="479" y2="352.5" id="Path-Copy-25" stroke="#FFDF59" stroke-width="5"></line>
        <line x1="3" y1="366.5" x2="479" y2="366.5" id="Path-Copy-26" stroke="#FFDF59" stroke-width="5"></line>
    </g>
</svg>