<?xml version="1.0" encoding="UTF-8"?>
<svg width="106px" height="106px" viewBox="0 0 106 106" version="1.1" xmlns="http://www.w3.org/2000/svg" xmlns:xlink="http://www.w3.org/1999/xlink">
    <title>icon-environmental-justice</title>
    <g id="icon-environmental-justice" stroke="none" stroke-width="1" fill="none" fill-rule="evenodd">
        <g id="Group-2" transform="translate(1.000000, 1.000000)" fill="#FFFFFF" stroke="#FFDF59" stroke-width="2">
            <circle id="Oval" cx="52" cy="52" r="52"></circle>
        </g>
        <g id="Group-4" transform="translate(19.000000, 20.000000)">
            <path d="M71,31 C71,49.7776815 55.7776815,65 37,65 C18.2223185,65 3,49.7776815 3,31 L3,31 Z" id="Combined-Shape" fill="#FFF6B9"></path>
            <path d="M60,3 C63.003397,3 65.4913836,5.20673416 65.9310197,8.08726234 C68.247592,8.52283262 70,10.5567679 70,13 C70,14.0008894 69.7059116,14.9330907 69.199432,15.7149067 C70.3103991,16.8031736 71,18.3210544 71,20 C71,23.3137085 68.3137085,26 65,26 C62.9124848,26 61.0739626,24.9339347 59.9991589,23.3165298 C58.9260374,24.9339347 57.0875152,26 55,26 C51.6862915,26 49,23.3137085 49,20 C49,18.3210544 49.6896009,16.8031736 50.8010111,15.7141494 C50.2940884,14.9330907 50,14.0008894 50,13 C50,10.5567679 51.752408,8.52283262 54.0688761,8.08654217 C54.5086164,5.20673416 56.996603,3 60,3 Z" id="Path" fill="#FFF6C0"></path>
            <path d="M45,9 C47.1842887,9 48.9937335,10.6310644 49.3134689,12.7601504 C49.5519488,12.8057214 49.7822078,12.8749632 50.0017949,12.9653833 L50,13 C50,14.0008894 50.2940884,14.9330907 50.8010111,15.7141494 C49.6896009,16.8031736 49,18.3210544 49,20 C49,22.017815 49.9960639,23.8029867 51.5233224,24.8906459 C50.7546035,25.5808508 49.7436471,26 48.6363636,26 C47.1181708,26 45.7810637,25.2120387 44.9993883,24.0165655 C44.2189363,25.2120387 42.8818292,26 41.3636364,26 C38.9536665,26 37,24.0144802 37,21.5652174 C37,20.3242576 37.5015279,19.2023457 38.3098262,18.3974148 C37.9411552,17.8201105 37.7272727,17.1310921 37.7272727,16.3913043 C37.7272727,14.5854371 39.0017513,13.0820937 40.6864553,12.7596181 C41.0062665,10.6310644 42.8157113,9 45,9 Z" id="Combined-Shape" fill="#FFF6C0"></path>
            <path d="M57,5 C60.003397,5 62.4913836,7.20673416 62.9310197,10.0872623 C65.247592,10.5228326 67,12.5567679 67,15 C67,16.0008894 66.7059116,16.9330907 66.199432,17.7149067 C67.3103991,18.8031736 68,20.3210544 68,22 C68,25.3137085 65.3137085,28 62,28 C59.9124848,28 58.0739626,26.9339347 56.9991589,25.3165298 C55.9260374,26.9339347 54.0875152,28 52,28 C48.6862915,28 46,25.3137085 46,22 C46,20.3210544 46.6896009,18.8031736 47.8010111,17.7141494 C47.2940884,16.9330907 47,16.0008894 47,15 C47,12.5567679 48.752408,10.5228326 51.0688761,10.0865422 C51.5086164,7.20673416 53.996603,5 57,5 Z" id="Path" stroke="#437CEC" stroke-width="2" stroke-linejoin="round"></path>
            <path d="M42,11 C44.1842887,11 45.9937335,12.6310644 46.3134689,14.7601504 C46.5519488,14.8057214 46.7822078,14.8749632 47.0017949,14.9653833 L47,15 C47,16.0008894 47.2940884,16.9330907 47.8010111,17.7141494 C46.6896009,18.8031736 46,20.3210544 46,22 C46,24.017815 46.9960639,25.8029867 48.5233224,26.8906459 C47.7546035,27.5808508 46.7436471,28 45.6363636,28 C44.1181708,28 42.7810637,27.2120387 41.9993883,26.0165655 C41.2189363,27.2120387 39.8818292,28 38.3636364,28 C35.9536665,28 34,26.0144802 34,23.5652174 C34,22.3242576 34.5015279,21.2023457 35.3098262,20.3974148 C34.9411552,19.8201105 34.7272727,19.1310921 34.7272727,18.3913043 C34.7272727,16.5854371 36.0017513,15.0820937 37.6864553,14.7596181 C38.0062665,12.6310644 39.8157113,11 42,11 Z" id="Combined-Shape" stroke="#437CEC" stroke-width="2" stroke-linejoin="round"></path>
            <polyline id="Path-10" stroke="#437CEC" stroke-width="2" stroke-linecap="round" points="54 20 57 22 60 20"></polyline>
            <line x1="39" y1="22" x2="42" y2="24" id="Path-10" stroke="#437CEC" stroke-width="2" stroke-linecap="round"></line>
            <line x1="57" y1="18" x2="57" y2="34" id="Path-11" stroke="#437CEC" stroke-width="2" stroke-linecap="round"></line>
            <line x1="42" y1="20" x2="42" y2="34" id="Path-11" stroke="#437CEC" stroke-width="2" stroke-linecap="round"></line>
            <path d="M14.7721188,17.6789396 C15.6440132,17.0007996 16.9005644,17.1578685 17.5787044,18.0297628 L17.5787044,18.0297628 L22.961,24.9495521 L16,34 L2,34 L14.4212956,18.0297628 C14.5232224,17.8987141 14.64107,17.7808665 14.7721188,17.6789396 Z" id="Combined-Shape" stroke="#437CEC" stroke-width="2" stroke-linejoin="round"></path>
            <path d="M24.414752,23.0608224 L16,34 L16,34 L36,34 L27.585248,23.0608224 C26.9117801,22.1853141 25.6560868,22.021528 24.7805785,22.6949959 C24.6433122,22.8005854 24.5203415,22.9235561 24.414752,23.0608224 Z" id="Path-12" stroke="#437CEC" stroke-width="2" stroke-linejoin="round"></path>
            <path d="M10,0 C12.2506569,0 14.211882,1.23920491 15.2385934,3.07253284 C15.484984,3.02488542 15.7395859,3 16,3 C18.209139,3 20,4.790861 20,7 C20,9.209139 18.209139,11 16,11 C15.273417,11 14.5920809,10.8062747 14.0048261,10.4676585 C12.9436553,11.4201607 11.539542,12 10,12 C8.46045798,12 7.05634469,11.4201607 5.99413232,10.4669544 C5.40791912,10.8062747 4.72658304,11 4,11 C1.790861,11 0,9.209139 0,7 C0,4.790861 1.790861,3 4,3 C4.26041413,3 4.51501596,3.02488542 4.76155715,3.0724079 C5.788118,1.23920491 7.74934309,0 10,0 Z" id="Combined-Shape" stroke="#437CEC" stroke-width="2"></path>
            <path d="M28,12 C26.6666667,12 26,12.6666667 26,14" id="Path-13" stroke="#437CEC" stroke-width="2" stroke-linecap="round"></path>
            <path d="M36,3 C34.6666667,3 34,3.66666667 34,5" id="Path-13-Copy" stroke="#437CEC" stroke-width="2" stroke-linecap="round"></path>
            <path d="M26,14 C26,12.6666667 25.3333333,12 24,12" id="Path-14" stroke="#437CEC" stroke-width="2" stroke-linecap="round"></path>
            <path d="M34,5 C34,3.66666667 33.3333333,3 32,3" id="Path-14-Copy" stroke="#437CEC" stroke-width="2" stroke-linecap="round"></path>
            <path d="M68,34 C68,52.7776815 52.7776815,68 34,68 C15.2223185,68 0,52.7776815 0,34 L0,34 Z" id="Combined-Shape" stroke="#437CEC" stroke-width="2" stroke-linejoin="round"></path>
            <path d="M30,34 C30.6666667,36.6666667 32,38.6666667 34,40 C37,42 43,43 44,48 C45,53 45,61 39,68" id="Path-15" stroke="#437CEC" stroke-width="2"></path>
            <path d="M53,34 C55.6666667,35.3333333 57,37.3333333 57,40 C57,44 54,47 54,51 C54,53.6666667 55,56.3333333 57,59" id="Path-16" stroke="#437CEC" stroke-width="2"></path>
        </g>
    </g>
</svg>