<?xml version="1.0" encoding="UTF-8"?>
<svg width="106px" height="106px" viewBox="0 0 106 106" version="1.1" xmlns="http://www.w3.org/2000/svg" xmlns:xlink="http://www.w3.org/1999/xlink">
    <title>icon-immigration</title>
    <g id="icon-immigration" stroke="none" stroke-width="1" fill="none" fill-rule="evenodd">
        <g id="Group-2" transform="translate(1.000000, 1.000000)" fill="#FFFFFF" stroke="#FFDF59" stroke-width="2">
            <circle id="Oval" cx="52" cy="52" r="52"></circle>
        </g>
        <g id="Group" transform="translate(33.000000, 23.000000)">
            <path d="M42,0 L42,54 L3,54 L3,0 L42,0 Z M23,7 C17.4771525,7 13,11.4771525 13,17 C13,22.5228475 17.4771525,27 23,27 C28.5228475,27 33,22.5228475 33,17 C33,11.4771525 28.5228475,7 23,7 Z" id="Combined-Shape" fill="#FFF6C0"></path>
            <path d="M39,56 L39,5 L42,5 L42,59 L0,59 L0,56 L39,56 Z" id="Combined-Shape" stroke="#437CEC" stroke-width="2" stroke-linejoin="round"></path>
            <rect id="Rectangle" stroke="#437CEC" stroke-width="2" stroke-linejoin="round" x="0" y="2" width="39" height="54"></rect>
            <circle id="Oval" stroke="#437CEC" stroke-width="2" cx="20" cy="19" r="10"></circle>
            <ellipse id="Oval" stroke="#437CEC" stroke-width="2" cx="20" cy="19" rx="6" ry="10"></ellipse>
            <ellipse id="Oval" stroke="#437CEC" stroke-width="2" cx="20" cy="19" rx="10" ry="4"></ellipse>
            <line x1="20" y1="9" x2="20" y2="29" id="Path-24" stroke="#437CEC" stroke-width="2"></line>
            <line x1="9" y1="36" x2="32" y2="36" id="Path-25" stroke="#437CEC" stroke-width="2" stroke-linecap="round"></line>
            <line x1="9" y1="41" x2="22" y2="41" id="Path-25-Copy" stroke="#437CEC" stroke-width="2" stroke-linecap="round"></line>
        </g>
    </g>
</svg>