<?xml version="1.0" encoding="UTF-8"?>
<svg width="106px" height="106px" viewBox="0 0 106 106" version="1.1" xmlns="http://www.w3.org/2000/svg" xmlns:xlink="http://www.w3.org/1999/xlink">
    <title>icon-policing-accountability</title>
    <g id="icon-policing-accountability" stroke="none" stroke-width="1" fill="none" fill-rule="evenodd">
        <g id="Group-2" transform="translate(1.000000, 1.000000)" fill="#FFFFFF" stroke="#FFDF59" stroke-width="2">
            <circle id="Oval" cx="52" cy="52" r="52"></circle>
        </g>
        <g id="Group-8" transform="translate(21.000000, 29.000000)">
            <path d="M61,35 C63,37.6666667 63.3333333,39.6666667 62,41 C57.4111111,43.6222222 48.3098148,45.2775 34.6961111,45.9658333 L34,46 C20,45.3333333 10.6666667,43.6666667 6,41 C4.66666667,39.6666667 5,37.6666667 7,35 L61,35 Z M34,0 L65,18 L61,29 L7,29 L3,18 L34,0 Z M34,9 L33.0153965,9.65640235 C31.7012563,10.5324958 30.1571948,11 28.5777949,11 L28.5777949,11 L28,11 L28,16.2530004 C28,18.6272392 29.0545841,20.8788201 30.8785248,22.3987707 L30.8785248,22.3987707 L34,25 L37.1214752,22.3987707 L37.3454401,22.2050103 C39.0314671,20.6909754 40,18.5283126 40,16.2530004 L40,16.2530004 L40,11 L39.4222051,11 L39.106854,10.9937841 C37.6379522,10.9358502 36.2111343,10.4740896 34.9846035,9.65640235 L34.9846035,9.65640235 L34,9 Z" id="Combined-Shape" fill="#FFF6C0"></path>
            <path d="M3,43 C1.66666667,41.6666667 2,39.6666667 4,37 L4,31 L0,20 L31,2 L62,20 L58,31 L58,37 C60,39.6666667 60.3333333,41.6666667 59,43 C54.3333333,45.6666667 45,47.3333333 31,48 L31,48 C17,47.3333333 7.66666667,45.6666667 3,43 Z" id="Combined-Shape" stroke="#437CEC" stroke-width="2"></path>
            <rect id="Rectangle" stroke="#437CEC" stroke-width="2" stroke-linejoin="round" x="4" y="31" width="54" height="6"></rect>
            <path d="M27.8785248,24.3987707 C26.0545841,22.8788201 25,20.6272392 25,18.2530004 L25,13 L25.5777949,13 C27.1571948,13 28.7012563,12.5324958 30.0153965,11.6564024 L31,11 L31.9846035,11.6564024 C33.2987437,12.5324958 34.8428052,13 36.4222051,13 L36.4222051,13 L37,13 L37,18.2530004 C37,20.6272392 35.9454159,22.8788201 34.1214752,24.3987707 L34.1214752,24.3987707 L31,27 L27.8785248,24.3987707 Z" id="Combined-Shape" stroke="#437CEC" stroke-width="2"></path>
            <line x1="31" y1="27" x2="31" y2="11" id="Path-28" stroke="#437CEC" stroke-width="2"></line>
        </g>
    </g>
</svg>