<?xml version="1.0" encoding="UTF-8"?>
<svg width="106px" height="106px" viewBox="0 0 106 106" version="1.1" xmlns="http://www.w3.org/2000/svg" xmlns:xlink="http://www.w3.org/1999/xlink">
    <title>icon-healthcare-justice</title>
    <defs>
        <path d="M7,34 C2.33333333,34.6666667 0,36.3333333 0,39 C0,43 10,50 29,51" id="path-1"></path>
        <path d="M36,34 C31.3333333,34.6666667 29,36.3333333 29,39 C29,43 39,50 58,51" id="path-2"></path>
    </defs>
    <g id="icon-healthcare-justice" stroke="none" stroke-width="1" fill="none" fill-rule="evenodd">
        <g id="Group-2" transform="translate(1.000000, 1.000000)" fill="#FFFFFF" stroke="#FFDF59" stroke-width="2">
            <circle id="Oval" cx="52" cy="52" r="52"></circle>
        </g>
        <g id="Group" transform="translate(23.000000, 22.000000)">
            <path d="M37.6576724,65.1362581 C37.8770973,65.3977192 38,65.690658 38,66 C38,67.1045695 36.4329966,68 34.5,68 C32.5670034,68 31,67.1045695 31,66 C31,65.690658 31.1229027,65.3977192 31.3423276,65.1362581 C32.1540048,65.6706399 33.2693078,66 34.5,66 C35.6649756,66 36.7265562,65.7048752 37.5256984,65.2206544 Z" id="Combined-Shape" stroke="#437CEC" stroke-width="2" fill="#D8D8D8"></path>
            <ellipse id="Oval-Copy" fill="#FFF6C0" cx="36.5" cy="61.5" rx="4.5" ry="3.5"></ellipse>
            <ellipse id="Oval-Copy" stroke="#437CEC" stroke-width="2" cx="34.5" cy="62.5" rx="4.5" ry="3.5"></ellipse>
            <circle id="Oval-Copy-2" stroke="#437CEC" stroke-width="2" cx="9" cy="34" r="2"></circle>
            <circle id="Oval-Copy-3" stroke="#437CEC" stroke-width="2" cx="48" cy="34" r="2"></circle>
            <path d="M53.628215,3.65485333 C58.3526806,8.37931897 58.49624,15.9517069 54.0622494,20.860101 L53.8328472,21.1073577 L53.6174532,21.3280163 L48.803,26.141 L48.8348298,26.1724286 L31.1724286,43.8348298 L31.141,43.803 L31.1106397,43.8348298 L13.4482385,26.1724286 L13.479,26.141 L8.66561515,21.3280163 L8.45022107,21.1073577 C3.7832779,16.2092161 3.85031199,8.45939466 8.65485333,3.65485333 C13.4522344,-1.14252774 21.1861233,-1.21651177 26.0854394,3.42938699 L26.3280163,3.66561515 L31.141,8.479 L35.955052,3.66561515 L36.1976289,3.42938699 C41.096945,-1.21651177 48.8308339,-1.14252774 53.628215,3.65485333 Z M34.1415342,12.9314991 L28.1415342,12.9314991 L28.1415342,20.4314991 L20.6415342,20.4314991 L20.6415342,26.4314991 L28.1415342,26.4314991 L28.1415342,33.9314991 L34.1415342,33.9314991 L34.1415342,26.4314991 L41.6415342,26.4314991 L41.6415342,20.4314991 L34.1415342,20.4314991 L34.1415342,12.9314991 Z" id="Combined-Shape" fill="#FFF6C0"></path>
            <path d="M34.1976289,5.42938699 C39.096945,0.783488226 46.8308339,0.857472264 51.628215,5.65485333 C56.3526806,10.379319 56.49624,17.9517069 52.0622494,22.860101 L51.8328472,23.1073577 L51.6174532,23.3280163 L46.803,28.141 L46.8348298,28.1724286 L29.1724286,45.8348298 L29.141,45.803 L29.1106397,45.8348298 L11.4482385,28.1724286 L11.479,28.141 L6.66561515,23.3280163 L6.45022107,23.1073577 C1.7832779,18.2092161 1.85031199,10.4593947 6.65485333,5.65485333 C11.4522344,0.857472264 19.1861233,0.783488226 24.0854394,5.42938699 L24.3280163,5.66561515 L29.141,10.479 L33.955052,5.66561515 L34.1976289,5.42938699 Z" id="Path" stroke="#437CEC" stroke-width="2"></path>
            <path d="M32.1415342,14.9314991 L32.1415342,22.4314991 L39.6415342,22.4314991 L39.6415342,28.4314991 L32.1415342,28.4314991 L32.1415342,35.9314991 L26.1415342,35.9314991 L26.1415342,28.4314991 L18.6415342,28.4314991 L18.6415342,22.4314991 L26.1415342,22.4314991 L26.1415342,14.9314991 L32.1415342,14.9314991 Z" id="Combined-Shape" stroke="#437CEC" stroke-width="2" stroke-linejoin="round"></path>
            <g id="Path-17" stroke-linecap="round">
                <use stroke="#979797" stroke-width="1" xlink:href="#path-1"></use>
                <use stroke="#437CEC" stroke-width="2" xlink:href="#path-1"></use>
            </g>
            <g id="Path-17" stroke-linecap="round" transform="translate(43.500000, 42.500000) scale(-1, 1) translate(-43.500000, -42.500000) ">
                <use stroke="#979797" stroke-width="1" xlink:href="#path-2"></use>
                <use stroke="#437CEC" stroke-width="2" xlink:href="#path-2"></use>
            </g>
            <path d="M29,51 C24.3333333,52.3333333 21.6666667,53.6666667 21,55 C20,57 26,60 35,57 C44,54 46,58 45,61 C44.3333333,63 41.6666667,64.6666667 37,66" id="Path-18" stroke="#437CEC" stroke-width="2" stroke-linecap="round"></path>
        </g>
    </g>
</svg>