<?xml version="1.0" encoding="UTF-8"?>
<svg width="218px" height="170px" viewBox="0 0 218 170" version="1.1" xmlns="http://www.w3.org/2000/svg" xmlns:xlink="http://www.w3.org/1999/xlink">
    <title>Artboard Copy 2</title>
    <g id="Artboard-Copy-2" stroke="none" stroke-width="1" fill="none" fill-rule="evenodd" stroke-dasharray="0,14" stroke-linecap="round">
        <path d="M3,2.5 L347,2.5 M3,14.5 L347,14.5 M3,25.5 L347,25.5 M3,37.5 L347,37.5 M3,49.5 L347,49.5 M3,61.5 L347,61.5 M3,72.5 L347,72.5 M3,84.5 L347,84.5 M3,96.5 L347,96.5 M3,108.5 L347,108.5 M3,119.5 L347,119.5 M3,131.5 L347,131.5 M3,143.5 L347,143.5 M3,155.5 L347,155.5 M3,167.5 L347,167.5 M3,178.5 L347,178.5 M3,190.5 L347,190.5 M3,202.5 L347,202.5 M3,214.5 L347,214.5 M3,225.5 L347,225.5 M3,237.5 L347,237.5 M3,249.5 L347,249.5 M3,261.5 L347,261.5" id="Combined-Shape" stroke="#FFDF59" stroke-width="5"></path>
    </g>
</svg>