<?xml version="1.0" encoding="UTF-8"?>
<svg width="512px" height="368px" viewBox="0 0 512 368" version="1.1" xmlns="http://www.w3.org/2000/svg" xmlns:xlink="http://www.w3.org/1999/xlink">
    <title>section-blob-bottom-left-blue</title>
    <g id="section-blob-bottom-left-blue" stroke="none" stroke-width="1" fill="none" fill-rule="evenodd">
        <g id="Group-11" transform="translate(256.500000, 183.500000) scale(-1, -1) translate(-256.500000, -183.500000) translate(1.000000, 0.000000)">
            <path d="M36.515625,38.5331229 C103.878425,0.517453694 159.62638,-9.36934228 203.759492,8.87273494 C269.95916,36.2358508 256.907022,178.473699 347.274766,168.893415 C437.642511,159.313131 489.469824,192.495897 480.51071,255.11597 C471.551595,317.736043 510.515625,367 510.515625,367 C510.515625,367 352.515625,367 36.515625,367 L36.515625,38.5331229 Z" id="Path-2" fill="#A1C4FF" opacity="0.334856" transform="translate(273.515625, 183.500000) scale(-1, -1) translate(-273.515625, -183.500000) "></path>
            <path d="M0.515625,0 C50.6434456,22.4834409 80.8766341,58.307075 91.2151904,107.470902 C106.723025,181.216643 145.239055,184.74991 219.788715,190.294611 C294.338376,195.839311 259.723843,327.443329 324.094442,356.688666 C367.008175,376.185557 429.14857,356.688666 510.515625,298.197991" id="Path-4" stroke="#A1C4FF" stroke-width="2"></path>
        </g>
    </g>
</svg>