<?xml version="1.0" encoding="UTF-8"?>
<svg width="464px" height="646px" viewBox="0 0 464 646" version="1.1" xmlns="http://www.w3.org/2000/svg" xmlns:xlink="http://www.w3.org/1999/xlink">
    <title>section-blob-bottom-right-blue</title>
    <g id="section-blob-bottom-right-blue" stroke="none" stroke-width="1" fill="none" fill-rule="evenodd">
        <g id="Group-11" transform="translate(232.000000, 322.500000) scale(-1, -1) rotate(-90.000000) translate(-232.000000, -322.500000) translate(-90.500000, 90.500000)">
            <path d="M46.5,49.1126318 C131.485135,1.15280943 201.816944,-11.3201784 257.495427,11.6936683 C341.013152,46.2144384 324.54653,225.658917 438.554782,213.572619 C552.563033,201.48632 617.948547,243.349047 606.645698,322.349303 C595.342848,401.349558 644.5,463.5 644.5,463.5 C644.5,463.5 445.166667,463.5 46.5,463.5 L46.5,49.1126318 Z" id="Path-2" fill="#A1C4FF" opacity="0.334856" transform="translate(345.500000, 232.000000) scale(-1, -1) translate(-345.500000, -232.000000) "></path>
            <path d="M0.5,1.5 C63.7986598,29.851372 101.97547,75.0245808 115.030432,137.019627 C134.612873,230.012195 183.248801,234.467607 277.38602,241.459413 C371.523239,248.45122 327.813906,414.402439 409.097565,451.280488 C463.286672,475.865854 541.75415,451.280488 644.5,377.52439" id="Path-4" stroke="#A1C4FF" stroke-width="2"></path>
        </g>
    </g>
</svg>