<?xml version="1.0" encoding="UTF-8"?>
<svg width="570px" height="931px" viewBox="0 0 570 931" version="1.1" xmlns="http://www.w3.org/2000/svg" xmlns:xlink="http://www.w3.org/1999/xlink">
    <title>section-blob-top-left-yellow</title>
    <g id="section-blob-top-left-yellow" stroke="none" stroke-width="1" fill="none" fill-rule="evenodd">
        <g id="Group-6" transform="translate(285.000000, 465.000000) rotate(-270.000000) translate(-285.000000, -465.000000) translate(-180.000000, 180.500000)">
            <path d="M1.3307292,142.354779 C37.5583106,173.371076 70.0995311,178.540458 98.9543908,157.862927 C142.23668,126.846631 173.006111,12.5 257.474397,12.5 C341.942683,12.5 319.415643,188.879224 366.118201,204.387372 C412.820758,219.89552 447.860656,188.879224 497.704409,204.387372 C547.548161,219.89552 503.519513,385.500389 587.423163,421.501448 C671.326812,457.502506 849.453326,345.232859 908.5,568.5 C908.5,568.5 605.833333,568.5 0.5,568.5 L1.3307292,142.354779 Z" id="Path-3" fill="#FFF6C0" opacity="0.6"></path>
            <path d="M1.5,109.622257 C16.8666331,162.234723 44.3899466,188.540956 84.0699406,188.540956 C143.589932,188.540956 196.50056,0.5 257.605499,0.5 C318.710438,0.5 304.57582,256.126828 380.026487,233.958801 C455.477153,211.790773 528.235357,190.981472 538.212734,260.380424 C548.190111,329.779376 542.639545,448.86275 603.065685,448.86275 C663.491824,448.86275 792.626106,392.557777 842.311625,430.956972 C875.435304,456.556436 904.498096,502.404112 929.5,568.5" id="Path-5" stroke="#FFDF59" stroke-width="2"></path>
        </g>
    </g>
</svg>